<svg width="631" height="270" viewBox="0 0 631 270" fill="none" xmlns="http://www.w3.org/2000/svg">
<path d="M58.12 16.84L38.68 54.44V73H25V54.44L5.56 16.84H21.08L31.96 40.36L42.76 16.84H58.12ZM83.9519 73.64C79.5785 73.64 75.6319 72.7067 72.1119 70.84C68.6452 68.9733 65.8985 66.3067 63.8719 62.84C61.8985 59.3733 60.9119 55.32 60.9119 50.68C60.9119 46.0933 61.9252 42.0667 63.9519 38.6C65.9785 35.08 68.7519 32.3867 72.2719 30.52C75.7919 28.6533 79.7385 27.72 84.1119 27.72C88.4852 27.72 92.4319 28.6533 95.9519 30.52C99.4719 32.3867 102.245 35.08 104.272 38.6C106.299 42.0667 107.312 46.0933 107.312 50.68C107.312 55.2667 106.272 59.32 104.192 62.84C102.165 66.3067 99.3652 68.9733 95.7919 70.84C92.2719 72.7067 88.3252 73.64 83.9519 73.64ZM83.9519 61.8C86.5652 61.8 88.7785 60.84 90.5919 58.92C92.4585 57 93.3919 54.2533 93.3919 50.68C93.3919 47.1067 92.4852 44.36 90.6719 42.44C88.9119 40.52 86.7252 39.56 84.1119 39.56C81.4452 39.56 79.2319 40.52 77.4719 42.44C75.7119 44.3067 74.8319 47.0533 74.8319 50.68C74.8319 54.2533 75.6852 57 77.3919 58.92C79.1519 60.84 81.3385 61.8 83.9519 61.8ZM158.649 28.36V73H144.969V66.92C143.583 68.8933 141.689 70.4933 139.289 71.72C136.943 72.8933 134.329 73.48 131.449 73.48C128.036 73.48 125.023 72.7333 122.409 71.24C119.796 69.6933 117.769 67.48 116.329 64.6C114.889 61.72 114.169 58.3333 114.169 54.44V28.36H127.769V52.6C127.769 55.5867 128.543 57.9067 130.089 59.56C131.636 61.2133 133.716 62.04 136.329 62.04C138.996 62.04 141.103 61.2133 142.649 59.56C144.196 57.9067 144.969 55.5867 144.969 52.6V28.36H158.649ZM182.156 35.8C183.756 33.3467 185.756 31.4267 188.156 30.04C190.556 28.6 193.222 27.88 196.156 27.88V42.36H192.396C188.982 42.36 186.422 43.1067 184.716 44.6C183.009 46.04 182.156 48.6 182.156 52.28V73H168.476V28.36H182.156V35.8ZM233.088 16.84V50.44C233.088 53.8 233.914 56.3867 235.568 58.2C237.221 60.0133 239.648 60.92 242.848 60.92C246.048 60.92 248.501 60.0133 250.208 58.2C251.914 56.3867 252.768 53.8 252.768 50.44V16.84H266.448V50.36C266.448 55.3733 265.381 59.6133 263.248 63.08C261.114 66.5467 258.234 69.16 254.608 70.92C251.034 72.68 247.034 73.56 242.608 73.56C238.181 73.56 234.208 72.7067 230.688 71C227.221 69.24 224.474 66.6267 222.448 63.16C220.421 59.64 219.408 55.3733 219.408 50.36V16.84H233.088ZM289.734 13.8V73H276.054V13.8H289.734ZM324.528 61.4V73H317.568C312.608 73 308.741 71.8 305.968 69.4C303.194 66.9467 301.808 62.9733 301.808 57.48V39.72H296.368V28.36H301.808V17.48H315.488V28.36H324.448V39.72H315.488V57.64C315.488 58.9733 315.808 59.9333 316.448 60.52C317.088 61.1067 318.154 61.4 319.648 61.4H324.528ZM339.028 23.72C336.628 23.72 334.654 23.0267 333.108 21.64C331.614 20.2 330.868 18.44 330.868 16.36C330.868 14.2267 331.614 12.4667 333.108 11.08C334.654 9.64 336.628 8.92 339.028 8.92C341.374 8.92 343.294 9.64 344.788 11.08C346.334 12.4667 347.108 14.2267 347.108 16.36C347.108 18.44 346.334 20.2 344.788 21.64C343.294 23.0267 341.374 23.72 339.028 23.72ZM345.828 28.36V73H332.148V28.36H345.828ZM412.701 27.88C418.248 27.88 422.648 29.56 425.901 32.92C429.208 36.28 430.861 40.9467 430.861 46.92V73H417.261V48.76C417.261 45.88 416.488 43.6667 414.941 42.12C413.448 40.52 411.368 39.72 408.701 39.72C406.035 39.72 403.928 40.52 402.381 42.12C400.888 43.6667 400.141 45.88 400.141 48.76V73H386.541V48.76C386.541 45.88 385.768 43.6667 384.221 42.12C382.728 40.52 380.648 39.72 377.981 39.72C375.315 39.72 373.208 40.52 371.661 42.12C370.168 43.6667 369.421 45.88 369.421 48.76V73H355.741V28.36H369.421V33.96C370.808 32.0933 372.621 30.6267 374.861 29.56C377.101 28.44 379.635 27.88 382.461 27.88C385.821 27.88 388.808 28.6 391.421 30.04C394.088 31.48 396.168 33.5333 397.661 36.2C399.208 33.7467 401.315 31.7467 403.981 30.2C406.648 28.6533 409.555 27.88 412.701 27.88ZM437.709 50.6C437.709 46.0133 438.562 41.9867 440.269 38.52C442.029 35.0533 444.402 32.3867 447.389 30.52C450.375 28.6533 453.709 27.72 457.389 27.72C460.535 27.72 463.282 28.36 465.629 29.64C468.029 30.92 469.869 32.6 471.149 34.68V28.36H484.829V73H471.149V66.68C469.815 68.76 467.949 70.44 465.549 71.72C463.202 73 460.455 73.64 457.309 73.64C453.682 73.64 450.375 72.7067 447.389 70.84C444.402 68.92 442.029 66.2267 440.269 62.76C438.562 59.24 437.709 55.1867 437.709 50.6ZM471.149 50.68C471.149 47.2667 470.189 44.5733 468.269 42.6C466.402 40.6267 464.109 39.64 461.389 39.64C458.669 39.64 456.349 40.6267 454.429 42.6C452.562 44.52 451.629 47.1867 451.629 50.6C451.629 54.0133 452.562 56.7333 454.429 58.76C456.349 60.7333 458.669 61.72 461.389 61.72C464.109 61.72 466.402 60.7333 468.269 58.76C470.189 56.7867 471.149 54.0933 471.149 50.68ZM519.606 61.4V73H512.646C507.686 73 503.819 71.8 501.046 69.4C498.272 66.9467 496.886 62.9733 496.886 57.48V39.72H491.446V28.36H496.886V17.48H510.566V28.36H519.526V39.72H510.566V57.64C510.566 58.9733 510.886 59.9333 511.526 60.52C512.166 61.1067 513.232 61.4 514.726 61.4H519.606ZM569.306 49.96C569.306 51.24 569.226 52.5733 569.066 53.96H538.106C538.319 56.7333 539.199 58.8667 540.746 60.36C542.346 61.8 544.292 62.52 546.586 62.52C549.999 62.52 552.372 61.08 553.706 58.2H568.266C567.519 61.1333 566.159 63.7733 564.186 66.12C562.266 68.4667 559.839 70.3067 556.906 71.64C553.972 72.9733 550.692 73.64 547.066 73.64C542.692 73.64 538.799 72.7067 535.386 70.84C531.972 68.9733 529.306 66.3067 527.386 62.84C525.466 59.3733 524.506 55.32 524.506 50.68C524.506 46.04 525.439 41.9867 527.306 38.52C529.226 35.0533 531.892 32.3867 535.306 30.52C538.719 28.6533 542.639 27.72 547.066 27.72C551.386 27.72 555.226 28.6267 558.586 30.44C561.946 32.2533 564.559 34.84 566.426 38.2C568.346 41.56 569.306 45.48 569.306 49.96ZM555.306 46.36C555.306 44.0133 554.506 42.1467 552.906 40.76C551.306 39.3733 549.306 38.68 546.906 38.68C544.612 38.68 542.666 39.3467 541.066 40.68C539.519 42.0133 538.559 43.9067 538.186 46.36H555.306ZM434.264 163.64C429.891 163.64 425.944 162.707 422.424 160.84C418.958 158.973 416.211 156.307 414.184 152.84C412.211 149.373 411.224 145.32 411.224 140.68C411.224 136.093 412.238 132.067 414.264 128.6C416.291 125.08 419.064 122.387 422.584 120.52C426.104 118.653 430.051 117.72 434.424 117.72C438.798 117.72 442.744 118.653 446.264 120.52C449.784 122.387 452.558 125.08 454.584 128.6C456.611 132.067 457.624 136.093 457.624 140.68C457.624 145.267 456.584 149.32 454.504 152.84C452.478 156.307 449.678 158.973 446.104 160.84C442.584 162.707 438.638 163.64 434.264 163.64ZM434.264 151.8C436.878 151.8 439.091 150.84 440.904 148.92C442.771 147 443.704 144.253 443.704 140.68C443.704 137.107 442.798 134.36 440.984 132.44C439.224 130.52 437.038 129.56 434.424 129.56C431.758 129.56 429.544 130.52 427.784 132.44C426.024 134.307 425.144 137.053 425.144 140.68C425.144 144.253 425.998 147 427.704 148.92C429.464 150.84 431.651 151.8 434.264 151.8ZM487.282 129.72H479.922V163H466.242V129.72H461.282V118.36H466.242V117.08C466.242 111.587 467.815 107.427 470.962 104.6C474.109 101.72 478.722 100.28 484.802 100.28C485.815 100.28 486.562 100.307 487.042 100.36V111.96C484.429 111.8 482.589 112.173 481.522 113.08C480.455 113.987 479.922 115.613 479.922 117.96V118.36H487.282V129.72ZM50.36 196.84V207.8H35.48V253H21.8V207.8H6.92V196.84H50.36ZM99.3056 229.96C99.3056 231.24 99.2256 232.573 99.0656 233.96H68.1056C68.319 236.733 69.199 238.867 70.7456 240.36C72.3456 241.8 74.2923 242.52 76.5856 242.52C79.999 242.52 82.3723 241.08 83.7056 238.2H98.2656C97.519 241.133 96.159 243.773 94.1856 246.12C92.2656 248.467 89.839 250.307 86.9056 251.64C83.9723 252.973 80.6923 253.64 77.0656 253.64C72.6923 253.64 68.799 252.707 65.3856 250.84C61.9723 248.973 59.3056 246.307 57.3856 242.84C55.4656 239.373 54.5056 235.32 54.5056 230.68C54.5056 226.04 55.439 221.987 57.3056 218.52C59.2256 215.053 61.8923 212.387 65.3056 210.52C68.719 208.653 72.639 207.72 77.0656 207.72C81.3856 207.72 85.2256 208.627 88.5856 210.44C91.9456 212.253 94.559 214.84 96.4256 218.2C98.3456 221.56 99.3056 225.48 99.3056 229.96ZM85.3056 226.36C85.3056 224.013 84.5056 222.147 82.9056 220.76C81.3056 219.373 79.3056 218.68 76.9056 218.68C74.6123 218.68 72.6656 219.347 71.0656 220.68C69.519 222.013 68.559 223.907 68.1856 226.36H85.3056ZM103.803 230.68C103.803 226.04 104.736 221.987 106.603 218.52C108.523 215.053 111.163 212.387 114.523 210.52C117.936 208.653 121.829 207.72 126.203 207.72C131.803 207.72 136.469 209.187 140.203 212.12C143.989 215.053 146.469 219.187 147.643 224.52H133.083C131.856 221.107 129.483 219.4 125.963 219.4C123.456 219.4 121.456 220.387 119.963 222.36C118.469 224.28 117.723 227.053 117.723 230.68C117.723 234.307 118.469 237.107 119.963 239.08C121.456 241 123.456 241.96 125.963 241.96C129.483 241.96 131.856 240.253 133.083 236.84H147.643C146.469 242.067 143.989 246.173 140.203 249.16C136.416 252.147 131.749 253.64 126.203 253.64C121.829 253.64 117.936 252.707 114.523 250.84C111.163 248.973 108.523 246.307 106.603 242.84C104.736 239.373 103.803 235.32 103.803 230.68ZM182.4 207.88C187.52 207.88 191.627 209.587 194.72 213C197.813 216.36 199.36 221 199.36 226.92V253H185.76V228.76C185.76 225.773 184.987 223.453 183.44 221.8C181.893 220.147 179.813 219.32 177.2 219.32C174.587 219.32 172.507 220.147 170.96 221.8C169.413 223.453 168.64 225.773 168.64 228.76V253H154.96V193.8H168.64V214.36C170.027 212.387 171.92 210.813 174.32 209.64C176.72 208.467 179.413 207.88 182.4 207.88ZM215.266 253.64C212.866 253.64 210.893 252.947 209.346 251.56C207.853 250.12 207.106 248.36 207.106 246.28C207.106 244.147 207.853 242.36 209.346 240.92C210.893 239.48 212.866 238.76 215.266 238.76C217.613 238.76 219.533 239.48 221.026 240.92C222.573 242.36 223.346 244.147 223.346 246.28C223.346 248.36 222.573 250.12 221.026 251.56C219.533 252.947 217.613 253.64 215.266 253.64Z" fill="white"/>
<path d="M23.64 125.8C25.24 123.347 27.24 121.427 29.64 120.04C32.04 118.6 34.7067 117.88 37.64 117.88V132.36H33.88C30.4667 132.36 27.9067 133.107 26.2 134.6C24.4933 136.04 23.64 138.6 23.64 142.28V163H9.96V118.36H23.64V125.8ZM64.4988 163.64C60.1254 163.64 56.1788 162.707 52.6588 160.84C49.1921 158.973 46.4454 156.307 44.4188 152.84C42.4454 149.373 41.4588 145.32 41.4588 140.68C41.4588 136.093 42.4721 132.067 44.4987 128.6C46.5254 125.08 49.2988 122.387 52.8188 120.52C56.3388 118.653 60.2854 117.72 64.6588 117.72C69.0321 117.72 72.9788 118.653 76.4988 120.52C80.0188 122.387 82.7921 125.08 84.8188 128.6C86.8454 132.067 87.8588 136.093 87.8588 140.68C87.8588 145.267 86.8188 149.32 84.7388 152.84C82.7121 156.307 79.9121 158.973 76.3388 160.84C72.8188 162.707 68.8721 163.64 64.4988 163.64ZM64.4988 151.8C67.1121 151.8 69.3254 150.84 71.1388 148.92C73.0054 147 73.9388 144.253 73.9388 140.68C73.9388 137.107 73.0321 134.36 71.2188 132.44C69.4588 130.52 67.2721 129.56 64.6588 129.56C61.9921 129.56 59.7788 130.52 58.0188 132.44C56.2588 134.307 55.3788 137.053 55.3788 140.68C55.3788 144.253 56.2321 147 57.9388 148.92C59.6988 150.84 61.8854 151.8 64.4988 151.8ZM92.3963 140.6C92.3963 136.013 93.2496 131.987 94.9563 128.52C96.7163 125.053 99.0896 122.387 102.076 120.52C105.063 118.653 108.396 117.72 112.076 117.72C115.223 117.72 117.97 118.36 120.316 119.64C122.716 120.92 124.556 122.6 125.836 124.68V118.36H139.516V163H125.836V156.68C124.503 158.76 122.636 160.44 120.236 161.72C117.89 163 115.143 163.64 111.996 163.64C108.37 163.64 105.063 162.707 102.076 160.84C99.0896 158.92 96.7163 156.227 94.9563 152.76C93.2496 149.24 92.3963 145.187 92.3963 140.6ZM125.836 140.68C125.836 137.267 124.876 134.573 122.956 132.6C121.09 130.627 118.796 129.64 116.076 129.64C113.356 129.64 111.036 130.627 109.116 132.6C107.25 134.52 106.316 137.187 106.316 140.6C106.316 144.013 107.25 146.733 109.116 148.76C111.036 150.733 113.356 151.72 116.076 151.72C118.796 151.72 121.09 150.733 122.956 148.76C124.876 146.787 125.836 144.093 125.836 140.68ZM146.693 140.6C146.693 136.013 147.546 131.987 149.253 128.52C151.013 125.053 153.386 122.387 156.373 120.52C159.36 118.653 162.693 117.72 166.373 117.72C169.306 117.72 171.973 118.333 174.373 119.56C176.826 120.787 178.746 122.44 180.133 124.52V103.8H193.813V163H180.133V156.6C178.853 158.733 177.013 160.44 174.613 161.72C172.266 163 169.52 163.64 166.373 163.64C162.693 163.64 159.36 162.707 156.373 160.84C153.386 158.92 151.013 156.227 149.253 152.76C147.546 149.24 146.693 145.187 146.693 140.6ZM180.133 140.68C180.133 137.267 179.173 134.573 177.253 132.6C175.386 130.627 173.093 129.64 170.373 129.64C167.653 129.64 165.333 130.627 163.413 132.6C161.546 134.52 160.613 137.187 160.613 140.6C160.613 144.013 161.546 146.733 163.413 148.76C165.333 150.733 167.653 151.72 170.373 151.72C173.093 151.72 175.386 150.733 177.253 148.76C179.173 146.787 180.133 144.093 180.133 140.68ZM260.67 117.88C266.217 117.88 270.617 119.56 273.87 122.92C277.177 126.28 278.83 130.947 278.83 136.92V163H265.23V138.76C265.23 135.88 264.457 133.667 262.91 132.12C261.417 130.52 259.337 129.72 256.67 129.72C254.003 129.72 251.897 130.52 250.35 132.12C248.857 133.667 248.11 135.88 248.11 138.76V163H234.51V138.76C234.51 135.88 233.737 133.667 232.19 132.12C230.697 130.52 228.617 129.72 225.95 129.72C223.283 129.72 221.177 130.52 219.63 132.12C218.137 133.667 217.39 135.88 217.39 138.76V163H203.71V118.36H217.39V123.96C218.777 122.093 220.59 120.627 222.83 119.56C225.07 118.44 227.603 117.88 230.43 117.88C233.79 117.88 236.777 118.6 239.39 120.04C242.057 121.48 244.137 123.533 245.63 126.2C247.177 123.747 249.283 121.747 251.95 120.2C254.617 118.653 257.523 117.88 260.67 117.88ZM285.678 140.6C285.678 136.013 286.531 131.987 288.238 128.52C289.998 125.053 292.371 122.387 295.358 120.52C298.344 118.653 301.678 117.72 305.358 117.72C308.504 117.72 311.251 118.36 313.598 119.64C315.998 120.92 317.838 122.6 319.118 124.68V118.36H332.798V163H319.118V156.68C317.784 158.76 315.918 160.44 313.518 161.72C311.171 163 308.424 163.64 305.278 163.64C301.651 163.64 298.344 162.707 295.358 160.84C292.371 158.92 289.998 156.227 288.238 152.76C286.531 149.24 285.678 145.187 285.678 140.6ZM319.118 140.68C319.118 137.267 318.158 134.573 316.238 132.6C314.371 130.627 312.078 129.64 309.358 129.64C306.638 129.64 304.318 130.627 302.398 132.6C300.531 134.52 299.598 137.187 299.598 140.6C299.598 144.013 300.531 146.733 302.398 148.76C304.318 150.733 306.638 151.72 309.358 151.72C312.078 151.72 314.371 150.733 316.238 148.76C318.158 146.787 319.118 144.093 319.118 140.68ZM356.374 124.68C357.708 122.6 359.548 120.92 361.894 119.64C364.241 118.36 366.988 117.72 370.134 117.72C373.814 117.72 377.148 118.653 380.134 120.52C383.121 122.387 385.468 125.053 387.174 128.52C388.934 131.987 389.814 136.013 389.814 140.6C389.814 145.187 388.934 149.24 387.174 152.76C385.468 156.227 383.121 158.92 380.134 160.84C377.148 162.707 373.814 163.64 370.134 163.64C367.041 163.64 364.294 163 361.894 161.72C359.548 160.44 357.708 158.787 356.374 156.76V184.28H342.694V118.36H356.374V124.68ZM375.894 140.6C375.894 137.187 374.934 134.52 373.014 132.6C371.148 130.627 368.828 129.64 366.054 129.64C363.334 129.64 361.014 130.627 359.094 132.6C357.228 134.573 356.294 137.267 356.294 140.68C356.294 144.093 357.228 146.787 359.094 148.76C361.014 150.733 363.334 151.72 366.054 151.72C368.774 151.72 371.094 150.733 373.014 148.76C374.934 146.733 375.894 144.013 375.894 140.6Z" fill="#00A3FF"/>
<path d="M189 166.863C120.2 158.463 34.3333 165.696 0 170.363V176.363C31.3333 172.011 116.4 165.919 206 176.363C295.6 186.807 371.333 178.715 398 173.363C363.5 179.863 275 177.363 189 166.863Z" fill="#00A3FF"/>
</svg>
